<svg width="45" height="57" viewBox="0 0 45 57" fill="none" xmlns="http://www.w3.org/2000/svg">
<g clip-path="url(#clip0_1_2)">
<rect width="44.0797" height="56.2515" fill="white"/>
<path d="M12.4652 32.1389C11.0699 29.7472 11.2232 26.7012 12.6545 23.6848C14.0851 20.6701 16.7824 17.7132 20.4152 15.5426C24.0481 13.372 27.9094 12.4104 31.2087 12.5991C34.5099 12.7879 37.2192 14.1235 38.6145 16.5152C40.0097 18.9069 39.8565 21.953 38.4252 24.9693C36.9946 27.984 34.2973 30.941 30.6645 33.1116C27.0316 35.2821 23.1703 36.2438 19.871 36.0551C16.5698 35.8663 13.8605 34.5306 12.4652 32.1389Z" stroke="url(#paint0_linear_1_2)" stroke-width="0.5"/>
<path d="M18.8637 39.5551C17.1213 39.3608 15.8332 37.8801 15.2147 35.5182C14.5992 33.1677 14.6685 30.0059 15.5829 26.5932C16.4973 23.1805 18.0774 20.1871 19.8803 18.1062C21.6918 16.0153 23.6757 14.8994 25.4181 15.0937C27.1605 15.288 28.4486 16.7687 29.0671 19.1306C29.6826 21.4811 29.6134 24.643 28.6989 28.0557C27.7845 31.4683 26.2044 34.4617 24.4016 36.5426C22.59 38.6335 20.6061 39.7494 18.8637 39.5551Z" fill="#D9D9D9" fill-opacity="0.6" stroke="url(#paint1_linear_1_2)" stroke-width="0.5"/>
<path d="M11.5824 37.63C10.1495 35.5877 10.1888 33.0413 11.4708 30.5536C12.7519 28.0676 15.2641 25.6666 18.7128 23.9534C22.1615 22.2402 25.8734 21.5491 29.0791 21.8062C32.287 22.0634 34.9557 23.2645 36.3887 25.3069C37.8217 27.3492 37.7823 29.8956 36.5003 32.3833C35.2192 34.8693 32.707 37.2703 29.2583 38.9835C25.8097 40.6967 22.0977 41.3878 18.892 41.1307C15.6841 40.8735 13.0154 39.6724 11.5824 37.63Z" stroke="url(#paint2_linear_1_2)" stroke-width="0.5"/>
<path d="M10.0969 38.368C8.66389 36.3257 8.70325 33.7793 9.98521 31.2916C11.2663 28.8056 13.7785 26.4046 17.2272 24.6914C20.6759 22.9782 24.3878 22.2871 27.5936 22.5442C30.8015 22.8014 33.4702 24.0025 34.9031 26.0449C36.3361 28.0872 36.2967 30.6336 35.0148 33.1213C33.7337 35.6073 31.2214 38.0083 27.7728 39.7215C24.3241 41.4347 20.6121 42.1258 17.4064 41.8687C14.1985 41.6115 11.5298 40.4104 10.0969 38.368Z" stroke="url(#paint3_linear_1_2)" stroke-width="0.5"/>
<path d="M8.61132 39.106C7.17836 37.0637 7.21771 34.5173 8.49967 32.0296C9.78078 29.5436 12.293 27.1426 15.7417 25.4294C19.1904 23.7162 22.9023 23.0251 26.108 23.2822C29.3159 23.5394 31.9846 24.7405 33.4176 26.7828C34.8506 28.8252 34.8112 31.3716 33.5292 33.8593C32.2481 36.3453 29.7359 38.7462 26.2872 40.4595C22.8386 42.1727 19.1266 42.8637 15.9209 42.6067C12.713 42.3494 10.0443 41.1483 8.61132 39.106Z" stroke="url(#paint4_linear_1_2)" stroke-width="0.5"/>
<path d="M7.1258 39.844C5.69284 37.8017 5.73219 35.2553 7.01415 32.7676C8.29526 30.2815 10.8075 27.8806 14.2562 26.1674C17.7048 24.4541 21.4168 23.7631 24.6225 24.0201C27.8304 24.2774 30.4991 25.4785 31.9321 27.5208C33.365 29.5631 33.3257 32.1095 32.0437 34.5972C30.7626 37.0832 28.2504 39.4842 24.8017 41.1974C21.353 42.9107 17.6411 43.6017 14.4353 43.3447C11.2275 43.0874 8.55876 41.8863 7.1258 39.844Z" stroke="url(#paint5_linear_1_2)" stroke-width="0.5"/>
<path d="M5.64026 44.5819C4.2073 42.5396 4.24666 39.9932 5.52862 37.5055C6.80972 35.0195 9.32195 32.6185 12.7706 30.9053C16.2193 29.1921 19.9313 28.501 23.137 28.7581C26.3449 29.0153 29.0136 30.2164 30.4465 32.2588C31.8795 34.3011 31.8401 36.8475 30.5582 39.3352C29.2771 41.8212 26.7649 44.2222 23.3162 45.9354C19.8675 47.6486 16.1556 48.3397 12.9498 48.0826C9.74194 47.8254 7.07322 46.6243 5.64026 44.5819Z" stroke="url(#paint6_linear_1_2)" stroke-width="0.5"/>
<path d="M19.8045 39.8134C16.1062 40.3818 12.9282 38.8312 10.7878 35.8214C8.64746 32.8117 7.55645 28.3551 8.0372 23.1625C8.51796 17.9699 10.4776 13.0445 13.245 9.28056C16.0126 5.51643 19.5736 2.93018 23.2719 2.36181C26.9702 1.79344 30.1481 3.34402 32.2885 6.35386C34.4289 9.36352 35.5199 13.8201 35.0391 19.0127C34.5584 24.2053 32.5987 29.1307 29.8313 32.8947C27.0637 36.6588 23.5027 39.245 19.8045 39.8134Z" stroke="url(#paint7_linear_1_2)" stroke-width="0.5"/>
<path d="M19.5978 42.0457C15.8995 42.6141 12.7216 41.0635 10.5811 38.0537C8.44079 35.044 7.34979 30.5874 7.83054 25.3948C8.31129 20.2022 10.2709 15.2768 13.0384 11.5129C15.806 7.74874 19.3669 5.16249 23.0652 4.59412C26.7635 4.02575 29.9414 5.57633 32.0819 8.58617C34.2222 11.5958 35.3132 16.0524 34.8325 21.245C34.3517 26.4377 32.3921 31.3631 29.6246 35.127C26.857 38.8911 23.2961 41.4774 19.5978 42.0457Z" stroke="url(#paint8_linear_1_2)" stroke-width="0.5"/>
<path d="M19.3911 44.278C15.6928 44.8464 12.5149 43.2958 10.3744 40.286C8.23413 37.2763 7.14312 32.8198 7.62387 27.6271C8.10463 22.4345 10.0643 17.5091 12.8317 13.7452C15.5993 9.98106 19.1603 7.39481 22.8585 6.82644C26.5568 6.25807 29.7348 7.80865 31.8752 10.8185C34.0155 13.8281 35.1065 18.2847 34.6258 23.4773C34.145 28.67 32.1854 33.5954 29.418 37.3593C26.6504 41.1234 23.0894 43.7097 19.3911 44.278Z" stroke="url(#paint9_linear_1_2)" stroke-width="0.5"/>
<path d="M19.1844 46.5104C15.4861 47.0787 12.3082 45.5282 10.1678 42.5183C8.02743 39.5087 6.93643 35.0521 7.41718 29.8595C7.89793 24.6668 9.85756 19.7414 12.625 15.9775C15.3926 12.2134 18.9536 9.62714 22.6518 9.05877C26.3501 8.4904 29.5281 10.041 31.6685 13.0508C33.8088 16.0605 34.8998 20.5171 34.4191 25.7097C33.9383 30.9023 31.9787 35.8277 29.2113 39.5916C26.4437 43.3558 22.8827 45.942 19.1844 46.5104Z" stroke="url(#paint10_linear_1_2)" stroke-width="0.5"/>
<path d="M18.9778 48.7427C15.2795 49.3111 12.1015 47.7605 9.96109 44.7506C7.82077 41.741 6.72976 37.2844 7.21051 32.0918C7.69127 26.8992 9.6509 21.9738 12.4183 18.2098C15.1859 14.4457 18.7469 11.8595 22.4452 11.2911C26.1435 10.7227 29.3214 12.2733 31.4619 15.2831C33.6022 18.2928 34.6932 22.7494 34.2124 27.942C33.7317 33.1346 31.772 38.06 29.0046 41.8239C26.237 45.5881 22.676 48.1743 18.9778 48.7427Z" stroke="url(#paint11_linear_1_2)" stroke-width="0.5"/>
<path d="M18.7711 50.975C15.0728 51.5434 11.8949 49.9928 9.75442 46.983C7.6141 43.9733 6.5231 39.5167 7.00385 34.3241C7.4846 29.1315 9.44423 24.2061 12.2117 20.4422C14.9793 16.678 18.5402 14.0918 22.2385 13.5234C25.9368 12.955 29.1147 14.5056 31.2552 17.5155C33.3955 20.5251 34.4865 24.9817 34.0058 30.1743C33.525 35.367 31.5654 40.2924 28.7979 44.0563C26.0303 47.8204 22.4694 50.4067 18.7711 50.975Z" stroke="url(#paint12_linear_1_2)" stroke-width="0.5"/>
<path d="M18.7652 54.1908C11.1001 55.1703 5.62641 48.8289 6.61564 39.9451C7.60486 31.0614 14.6692 23.1178 22.3343 22.1384C29.9994 21.1589 35.4731 27.5003 34.4839 36.3841C33.4947 45.2678 26.4303 53.2114 18.7652 54.1908Z" stroke="url(#paint13_linear_1_2)" stroke-width="0.5"/>
</g>
<defs>
<linearGradient id="paint0_linear_1_2" x1="30.7904" y1="33.3275" x2="20.1021" y2="15.4385" gradientUnits="userSpaceOnUse">
<stop/>
<stop offset="1" stop-color="#8893FB"/>
</linearGradient>
<linearGradient id="paint1_linear_1_2" x1="28.9474" y1="28.0834" x2="15.8668" y2="24.5784" gradientUnits="userSpaceOnUse">
<stop/>
<stop offset="1" stop-color="#8893FB"/>
</linearGradient>
<linearGradient id="paint2_linear_1_2" x1="29.4019" y1="39.1882" x2="21.106" y2="22.4886" gradientUnits="userSpaceOnUse">
<stop/>
<stop offset="1" stop-color="#8893FB"/>
</linearGradient>
<linearGradient id="paint3_linear_1_2" x1="27.9164" y1="39.9261" x2="19.6204" y2="23.2265" gradientUnits="userSpaceOnUse">
<stop/>
<stop offset="1" stop-color="#8893FB"/>
</linearGradient>
<linearGradient id="paint4_linear_1_2" x1="26.4308" y1="40.6641" x2="18.1349" y2="23.9645" gradientUnits="userSpaceOnUse">
<stop/>
<stop offset="1" stop-color="#8893FB"/>
</linearGradient>
<linearGradient id="paint5_linear_1_2" x1="24.9453" y1="41.4021" x2="16.6493" y2="24.7025" gradientUnits="userSpaceOnUse">
<stop/>
<stop offset="1" stop-color="#8893FB"/>
</linearGradient>
<linearGradient id="paint6_linear_1_2" x1="23.4598" y1="46.14" x2="15.1638" y2="29.4404" gradientUnits="userSpaceOnUse">
<stop/>
<stop offset="1" stop-color="#8893FB"/>
</linearGradient>
<linearGradient id="paint7_linear_1_2" x1="35.2862" y1="18.9747" x2="8.4117" y2="16.4866" gradientUnits="userSpaceOnUse">
<stop stop-color="#8A96FF"/>
<stop offset="1"/>
</linearGradient>
<linearGradient id="paint8_linear_1_2" x1="35.0795" y1="21.2071" x2="8.20504" y2="18.7189" gradientUnits="userSpaceOnUse">
<stop stop-color="#8A96FF"/>
<stop offset="1"/>
</linearGradient>
<linearGradient id="paint9_linear_1_2" x1="34.8729" y1="23.4394" x2="7.99837" y2="20.9512" gradientUnits="userSpaceOnUse">
<stop stop-color="#8A96FF"/>
<stop offset="1"/>
</linearGradient>
<linearGradient id="paint10_linear_1_2" x1="34.6662" y1="25.6717" x2="7.79168" y2="23.1836" gradientUnits="userSpaceOnUse">
<stop stop-color="#8A96FF"/>
<stop offset="1"/>
</linearGradient>
<linearGradient id="paint11_linear_1_2" x1="34.4595" y1="27.904" x2="7.58501" y2="25.4159" gradientUnits="userSpaceOnUse">
<stop stop-color="#8A96FF"/>
<stop offset="1"/>
</linearGradient>
<linearGradient id="paint12_linear_1_2" x1="34.2529" y1="30.1364" x2="7.37835" y2="27.6482" gradientUnits="userSpaceOnUse">
<stop stop-color="#8A96FF"/>
<stop offset="1"/>
</linearGradient>
<linearGradient id="paint13_linear_1_2" x1="34.7319" y1="36.3524" x2="7.11369" y2="33.277" gradientUnits="userSpaceOnUse">
<stop stop-color="#8A96FF"/>
<stop offset="1"/>
</linearGradient>
<clipPath id="clip0_1_2">
<rect width="44.0797" height="56.2515" fill="white"/>
</clipPath>
</defs>
</svg>
